<?xml version="1.0" encoding="utf-8"?>
<!-- Generator: Adobe Illustrator 25.3.1, SVG Export Plug-In . SVG Version: 6.00 Build 0)  -->
<svg version="1.1" id="圖層_1" xmlns="http://www.w3.org/2000/svg" xmlns:xlink="http://www.w3.org/1999/xlink" x="0px" y="0px"
	 viewBox="0 0 760 760" style="enable-background:new 0 0 760 760;" xml:space="preserve">
<style type="text/css">
	.st0{fill:#FFFFFF;}
</style>
<g>
	<path class="st0" d="M2.1,340h80.6C100.5,206.3,206.3,100.5,340,82.6V2.1C162.1,20.7,20.7,162.1,2.1,340z M82.7,420H2.1
		c18.6,177.9,160,319.3,337.9,337.9v-80.6C206.3,659.5,100.5,553.7,82.7,420z M677.3,420C659.5,553.7,553.7,659.5,420,677.3v80.6
		c177.9-18.6,319.3-160,337.9-337.9L677.3,420L677.3,420z M420,2.1v80.6C553.7,100.5,659.5,206.3,677.3,340h80.6
		C739.3,162.1,597.9,20.7,420,2.1z"/>
</g>
</svg>
